<svg width="26" height="21" viewBox="0 0 26 21" fill="none" xmlns="http://www.w3.org/2000/svg">
<path d="M25.853 3.27615C25.6754 3.04737 25.3431 2.93625 24.8359 2.93625C22.8542 2.93363 20.8725 2.93363 18.8895 2.93363H16.2364L14.1108 2.93233C11.63 2.93102 9.0644 2.92971 6.52976 2.94279C6.20419 2.94671 6.08849 2.86173 6.01315 2.55713C5.93781 2.2499 5.84498 1.94268 5.75215 1.63677C5.67143 1.36877 5.58667 1.09162 5.51806 0.817077C5.37814 0.268001 5.01759 0 4.41622 0C4.41353 0 4.40949 0 4.40949 0C3.8135 0.0052293 3.20406 0.00392194 2.66592 0.00261461H2.48699C2.0215 0.00261461 1.55601 0.00130734 1.09052 0.00522932C0.71113 0.00784396 0.409772 0.11243 0.217387 0.305914C0.0667085 0.458871 -0.00863103 0.66412 0.000786409 0.898131C0.0196213 1.42368 0.417844 1.72697 1.09186 1.7322L1.35959 1.73482C2.09684 1.74136 2.85965 1.74658 3.61036 1.72828C3.86597 1.71913 3.95207 1.7845 4.02607 2.04204C4.50232 3.67489 4.98127 5.30643 5.46155 6.93797L5.47232 6.97457C6.11136 9.14865 6.77192 10.6182 7.41904 12.8524C7.47554 13.0485 7.44729 13.3283 7.34773 13.5309C6.91722 14.412 6.92395 15.3102 7.36388 15.9952C7.80381 16.6789 8.6285 17.075 9.6281 17.0855C9.76667 17.0868 9.90658 17.0907 10.06 17.0934C10.29 17.0986 10.5281 17.1038 10.816 17.1038H19.9671L20.6721 17.1012C21.1524 17.0986 21.6474 17.0947 22.1371 17.0724C22.643 17.0489 22.9982 16.6998 22.9995 16.2214C23.0009 15.7638 22.6591 15.4187 22.1493 15.3638C22.0134 15.3494 21.8788 15.3494 21.7457 15.3507L14.7229 15.3546C12.8852 15.3559 11.2277 15.3572 9.56352 15.352C9.06305 15.3507 8.81685 15.1585 8.81013 14.7663C8.80743 14.5611 8.85183 14.4146 8.94601 14.3218C9.05633 14.2133 9.24467 14.161 9.52451 14.1597C11.4726 14.1584 13.4193 14.1571 15.3674 14.1571H16.1705C18.0459 14.1558 19.92 14.1558 21.7941 14.1545C22.6376 14.1545 22.826 14.0159 23.0574 13.2289C24.0099 9.99328 24.961 7.53411 25.9095 4.29717C26.0467 3.83438 26.0279 3.50232 25.853 3.27615ZM21.0609 12.4275V12.4929L21.0555 12.4275C19.2231 12.4223 17.2455 12.4197 14.6462 12.4197L9.49222 12.421C9.24602 12.421 9.14377 12.4197 9.07247 12.17C8.49262 10.1423 7.88856 8.8715 7.30334 6.8909C7.10019 6.20456 6.89839 5.51691 6.69658 4.83056C6.68448 4.79003 6.67506 4.7482 6.66295 4.69591H23.9278L23.874 4.88808C23.8067 5.12863 23.7435 5.35611 23.6762 5.58358C23.4852 6.23201 23.2941 6.88045 23.1031 7.53019L23.095 7.55764C22.5838 9.29377 22.0551 10.3096 21.5506 12.0785C21.4712 12.3582 21.3743 12.4275 21.0609 12.4275Z" fill="#ED1F24"/>
<ellipse cx="9.9621" cy="19.5" rx="1.5196" ry="1.5" fill="#ED1F24"/>
<ellipse cx="20.0924" cy="19.5" rx="1.5196" ry="1.5" fill="#ED1F24"/>
</svg>
