<svg width="29" height="28" viewBox="0 0 29 28" fill="none" xmlns="http://www.w3.org/2000/svg">
<path fill-rule="evenodd" clip-rule="evenodd" d="M27.9221 9.42613C28.513 10.4496 28.8376 11.5617 28.9519 12.7302C28.9569 12.7829 28.9693 12.835 28.9818 12.887C28.988 12.9131 28.9942 12.9391 28.9995 12.9652V14.2801C28.9662 14.4529 28.9368 14.6267 28.9075 14.8006C28.8441 15.1754 28.7808 15.5501 28.678 15.9142C27.5506 19.8999 23.984 22.5267 19.6751 22.5648C19.5464 22.5657 19.4175 22.5654 19.2802 22.5651C19.2084 22.565 19.1344 22.5648 19.0569 22.5648V27.9993C19.0145 27.9636 18.9789 27.934 18.948 27.9083C18.8901 27.8601 18.8484 27.8255 18.808 27.7892C18.4688 27.4839 18.1295 27.1786 17.7903 26.8733C16.2635 25.4993 14.7367 24.1254 13.2144 22.7471C13.0639 22.6109 12.9156 22.5589 12.7135 22.5619C11.6475 22.575 10.5845 22.5699 9.53277 22.3393C5.78151 21.5157 2.84284 18.3412 2.43049 14.6608C2.23226 12.8905 2.51523 11.2052 3.33842 9.61063C3.41938 9.45395 3.40803 9.35951 3.27789 9.23578C3.14155 9.10585 3.00483 8.97622 2.86809 8.84658C2.30373 8.31149 1.73911 7.77616 1.19949 7.21805C-1.06428 4.87893 0.0259911 1.04773 3.21358 0.181634C4.83802 -0.259836 6.29373 0.109154 7.53154 1.22637C7.73963 1.41444 7.93541 1.61509 8.14303 1.82787C8.24416 1.93151 8.34809 2.03803 8.45763 2.14738C8.55965 2.04521 8.65838 1.94492 8.75535 1.84642C8.96689 1.63154 9.17006 1.42517 9.38069 1.22637C11.7315 -0.989029 15.6885 -0.0497167 16.6782 2.97321C16.7917 3.32011 16.8409 3.68674 16.8927 4.0722C16.9175 4.25701 16.9429 4.44615 16.9763 4.63952C16.9842 4.63952 16.9965 4.63944 17.0122 4.63933C17.061 4.63898 17.1423 4.63841 17.2237 4.63952C17.5653 4.64364 17.9077 4.64104 18.25 4.63845C19.0039 4.63273 19.7579 4.62701 20.5051 4.69297C23.8364 4.98728 26.2977 6.61332 27.9221 9.42613ZM2.40174 2.53467C1.41512 3.6065 1.47489 5.1586 2.56138 6.21578C3.92894 7.54645 5.3012 8.87296 6.67392 10.1999C7.21125 10.7193 7.74866 11.2388 8.28588 11.7587C8.32236 11.794 8.36144 11.8271 8.40387 11.8632C8.42216 11.8787 8.44106 11.8947 8.46065 11.9117C8.48044 11.8935 8.49979 11.8759 8.51877 11.8586C8.57092 11.811 8.62026 11.766 8.66796 11.7199C9.31226 11.0964 9.95674 10.473 10.6012 9.84954C11.2449 9.22692 11.8885 8.60429 12.532 7.98166C12.7075 7.81178 12.8832 7.64213 13.0589 7.47252C13.4979 7.04861 13.9367 6.6249 14.3728 6.19821C15.0674 5.5188 15.342 4.69956 15.1423 3.7661C14.9251 2.75211 14.2805 2.06685 13.2553 1.77327C12.221 1.47676 11.2941 1.71909 10.5201 2.44901C10.0964 2.84826 9.67947 3.25402 9.2625 3.65977C9.05401 3.86265 8.84552 4.06554 8.63619 4.2676C8.59904 4.30308 8.55936 4.33642 8.50696 4.38045C8.47825 4.40457 8.44572 4.4319 8.40769 4.46455C8.38315 4.43296 8.36089 4.40195 8.33941 4.37203C8.29668 4.31249 8.25705 4.25728 8.2087 4.2105C8.03546 4.04227 7.86319 3.87304 7.69092 3.70381C7.2207 3.24189 6.7505 2.77998 6.26044 2.33846C5.15806 1.34571 3.40349 1.44674 2.40174 2.53467ZM19.5912 20.8998C20.1477 20.8855 20.7064 20.8711 21.2443 20.7645C25.3005 19.9584 27.8843 16.2502 27.1814 12.3012C26.6139 9.11498 23.7668 6.56427 20.4431 6.33731C19.5023 6.27309 18.5563 6.28007 17.6107 6.28704C17.2627 6.28961 16.9146 6.29217 16.5669 6.29119C16.4807 6.29046 16.3748 6.37538 16.3127 6.44786C16.2116 6.56639 16.1162 6.6904 16.021 6.81433C15.8627 7.02032 15.7045 7.22611 15.5198 7.40621C13.7346 9.14625 11.942 10.8791 10.1492 12.6122C9.64505 13.0995 9.14092 13.5869 8.63694 14.0744C8.60105 14.1091 8.56279 14.1413 8.51297 14.1832C8.48299 14.2084 8.44881 14.2371 8.40845 14.272C7.79738 13.6786 7.18925 13.0882 6.58189 12.4985C5.95669 11.8915 5.33231 11.2852 4.70637 10.6773C4.69878 10.6928 4.691 10.7077 4.68334 10.7224C4.66961 10.7487 4.65625 10.7743 4.64508 10.8011C4.04206 12.2184 3.90663 13.679 4.24559 15.1748C4.93486 18.2167 7.54062 20.5214 10.7229 20.8546C11.2824 20.9132 11.8484 20.9136 12.4149 20.914C12.7463 20.9142 13.0778 20.9144 13.4081 20.9263C13.5594 20.9314 13.7425 20.9922 13.8522 21.0896C14.6658 21.8092 15.4726 22.5366 16.2793 23.2638C16.5567 23.5139 16.8341 23.7639 17.1117 24.0137C17.1503 24.0482 17.1909 24.0808 17.2432 24.1228C17.2708 24.145 17.3016 24.1698 17.3372 24.1989V20.919C17.5321 20.919 17.7224 20.9208 17.9096 20.9226C18.3187 20.9264 18.7126 20.9302 19.1061 20.9146C19.2673 20.9081 19.4291 20.904 19.5912 20.8998ZM15.2075 11.8658L15.2431 11.8714C15.3929 11.8949 15.4897 12.0047 15.4958 12.1863C15.4894 12.1965 15.4823 12.2099 15.4741 12.2252C15.4515 12.2678 15.421 12.3251 15.377 12.3693C15.2832 12.4634 15.1861 12.5545 15.0891 12.6457C14.9921 12.7368 14.895 12.828 14.8012 12.922C14.7626 12.9601 14.7377 13.0348 14.7452 13.0875C14.7831 13.3503 14.8315 13.6124 14.8799 13.8738C14.9026 13.9968 14.8686 14.0964 14.7664 14.171C14.6673 14.2435 14.5599 14.2421 14.4524 14.1886C14.4003 14.1624 14.3482 14.1363 14.296 14.1102L14.296 14.1102C14.108 14.0161 13.9201 13.9221 13.7359 13.8218C13.6481 13.7735 13.5816 13.7794 13.4968 13.8248C13.3579 13.8994 13.2166 13.9702 13.0754 14.041C12.9852 14.0862 12.8949 14.1314 12.8053 14.1776C12.688 14.2377 12.5745 14.2494 12.4656 14.1688C12.3589 14.0905 12.3324 13.9858 12.3574 13.8577C12.4073 13.6007 12.4527 13.343 12.489 13.0846C12.4966 13.0319 12.4709 12.9579 12.4323 12.9191C12.2706 12.7576 12.1026 12.6016 11.9347 12.4459L11.8633 12.3795C11.7702 12.2924 11.7143 12.1965 11.7544 12.0677C11.796 11.9337 11.8981 11.8795 12.0343 11.8619C12.1637 11.8455 12.2927 11.8272 12.4217 11.8089L12.4219 11.8088C12.5508 11.7905 12.6797 11.7722 12.8091 11.7558C12.8976 11.7448 12.9528 11.7111 12.9922 11.6269C13.0638 11.4742 13.1414 11.324 13.2191 11.1739L13.2191 11.1738L13.2192 11.1738C13.258 11.0987 13.2968 11.0236 13.3349 10.9482C13.3917 10.8355 13.4734 10.7564 13.6103 10.7535C13.7541 10.7506 13.8403 10.8318 13.8993 10.9497C13.934 11.0185 13.9698 11.0866 14.0056 11.1547L14.0056 11.1548C14.0791 11.2947 14.1525 11.4343 14.2156 11.5786C14.2701 11.7038 14.3495 11.7499 14.4834 11.7638C14.7257 11.7889 14.9666 11.8274 15.2075 11.8658L15.2075 11.8658ZM14.1316 12.9835C14.1021 12.8503 14.1437 12.7471 14.2428 12.657C14.3293 12.5782 14.4142 12.4969 14.5134 12.4019L14.5773 12.3407C14.5253 12.3333 14.4774 12.3261 14.4322 12.3192L14.4321 12.3192C14.3297 12.3037 14.2412 12.2903 14.152 12.2822C13.9803 12.2668 13.8683 12.1863 13.8017 12.0318C13.7682 11.9535 13.7274 11.8778 13.6829 11.7953L13.6828 11.7952C13.6612 11.755 13.6386 11.7132 13.6156 11.6686C13.5947 11.7091 13.5744 11.7458 13.5553 11.7803L13.5553 11.7803C13.5171 11.8494 13.4837 11.9097 13.4605 11.9732C13.3803 12.1921 13.2229 12.288 12.9891 12.2946C12.9205 12.2966 12.8526 12.3093 12.7807 12.3228C12.7464 12.3292 12.7111 12.3358 12.6744 12.3415C12.7104 12.3774 12.7443 12.4119 12.777 12.4451L12.777 12.4452C12.8488 12.5181 12.9147 12.5851 12.9838 12.649C13.0867 12.7434 13.1306 12.8496 13.0996 12.9879C13.0786 13.0829 13.0642 13.1792 13.0485 13.284C13.0415 13.3304 13.0343 13.3784 13.0262 13.4287C13.0728 13.4056 13.1168 13.3845 13.1587 13.3644L13.1587 13.3644L13.1588 13.3644C13.2523 13.3196 13.3355 13.2797 13.4144 13.2332C13.5543 13.1512 13.6845 13.1563 13.8229 13.2347C13.9051 13.2811 13.9907 13.3221 14.0847 13.3672C14.1239 13.386 14.1647 13.4055 14.2073 13.4265C14.1986 13.3743 14.1909 13.325 14.1836 13.2777L14.1836 13.2777L14.1836 13.2777C14.1673 13.1725 14.1525 13.0775 14.1316 12.9835ZM20.1606 11.8658L20.1962 11.8714C20.346 11.8949 20.4421 12.0047 20.4489 12.1863C20.4425 12.1965 20.4354 12.2099 20.4272 12.2252C20.4046 12.2678 20.3741 12.3251 20.3301 12.3693C20.2363 12.4634 20.1392 12.5545 20.0422 12.6457C19.9452 12.7368 19.8481 12.828 19.7543 12.922C19.7157 12.9601 19.6908 13.0348 19.6983 13.0875C19.7362 13.3503 19.7846 13.6124 19.833 13.8738C19.8557 13.9968 19.8217 14.0964 19.7195 14.171C19.6204 14.2435 19.513 14.2421 19.4055 14.1886C19.3534 14.1624 19.3013 14.1363 19.2491 14.1102C19.0611 14.0161 18.8732 13.9221 18.689 13.8218C18.6013 13.7735 18.5347 13.7794 18.4499 13.8248C18.311 13.8994 18.1697 13.9702 18.0285 14.041C17.9383 14.0862 17.8481 14.1314 17.7584 14.1776C17.6411 14.2377 17.5276 14.2494 17.4187 14.1688C17.312 14.0905 17.2855 13.9858 17.3105 13.8577C17.3604 13.6007 17.4058 13.343 17.4421 13.0846C17.4497 13.0319 17.424 12.9579 17.3854 12.9191C17.2238 12.7576 17.0558 12.6017 16.888 12.446L16.8879 12.4459L16.8879 12.4459L16.8164 12.3795C16.7234 12.2924 16.6674 12.1965 16.7075 12.0677C16.7491 11.9337 16.8512 11.8795 16.9874 11.8619C17.1168 11.8455 17.2457 11.8272 17.3747 11.8089L17.3748 11.8089C17.5038 11.7905 17.6328 11.7722 17.7622 11.7558C17.8507 11.7448 17.9059 11.7111 17.9453 11.6269C18.0169 11.4742 18.0945 11.3241 18.1722 11.1739L18.1723 11.1738C18.2111 11.0987 18.2499 11.0237 18.288 10.9482C18.3448 10.8355 18.4265 10.7564 18.5634 10.7535C18.7072 10.7506 18.7934 10.8318 18.8524 10.9497C18.8871 11.0185 18.9229 11.0867 18.9587 11.1548C19.0322 11.2947 19.1056 11.4343 19.1687 11.5786C19.2232 11.7038 19.3026 11.7499 19.4365 11.7638C19.6788 11.7889 19.9197 11.8274 20.1606 11.8658ZM19.084 12.9835C19.0545 12.8503 19.0961 12.7471 19.1952 12.657C19.2779 12.5822 19.3582 12.5051 19.4509 12.4162L19.4509 12.4161L19.5296 12.3407C19.4777 12.3333 19.4297 12.3261 19.3844 12.3192C19.2821 12.3037 19.1936 12.2903 19.1044 12.2822C18.9326 12.2668 18.8207 12.1863 18.7541 12.0318C18.7205 11.9535 18.6797 11.8778 18.6352 11.7953C18.6136 11.7551 18.591 11.7132 18.568 11.6686C18.5471 11.7091 18.5268 11.7458 18.5077 11.7803C18.4694 11.8495 18.4361 11.9097 18.4129 11.9732C18.3327 12.1921 18.1753 12.288 17.9415 12.2946C17.8729 12.2966 17.805 12.3093 17.7331 12.3228L17.7331 12.3228C17.6987 12.3292 17.6635 12.3358 17.6268 12.3415C17.6627 12.3774 17.6967 12.4119 17.7294 12.4451C17.8011 12.5181 17.8671 12.5851 17.9362 12.649C18.0391 12.7434 18.083 12.8496 18.052 12.9879C18.031 13.0829 18.0165 13.1792 18.0008 13.2841L18.0008 13.2842C17.9939 13.3305 17.9867 13.3785 17.9786 13.4287C18.0252 13.4056 18.0691 13.3845 18.111 13.3644C18.2046 13.3196 18.2878 13.2797 18.3667 13.2332C18.5067 13.1512 18.6368 13.1563 18.7753 13.2347C18.8575 13.2811 18.943 13.3221 19.037 13.3672C19.0763 13.386 19.117 13.4055 19.1596 13.4265C19.151 13.3743 19.1433 13.325 19.136 13.2777C19.1196 13.1725 19.1049 13.0775 19.084 12.9835ZM24.8495 11.8714L24.814 11.8658C24.5731 11.8274 24.3322 11.7889 24.0899 11.7638C23.956 11.7499 23.8765 11.7038 23.822 11.5786C23.7589 11.4343 23.6856 11.2947 23.612 11.1548C23.5763 11.0867 23.5405 11.0185 23.5058 10.9497C23.4468 10.8318 23.3605 10.7506 23.2168 10.7535C23.0798 10.7564 22.9981 10.8355 22.9414 10.9482C22.9033 11.0236 22.8644 11.0987 22.8256 11.1738C22.7479 11.324 22.6702 11.4741 22.5986 11.6269C22.5593 11.7111 22.504 11.7448 22.4155 11.7558C22.2861 11.7722 22.1571 11.7905 22.0281 11.8089L22.0279 11.8089C21.899 11.8272 21.7701 11.8455 21.6407 11.8619C21.5046 11.8795 21.4024 11.9337 21.3608 12.0677C21.3207 12.1965 21.3767 12.2924 21.4698 12.3795L21.5412 12.4459L21.5413 12.4459C21.7091 12.6017 21.8771 12.7576 22.0387 12.9191C22.0773 12.9579 22.103 13.0319 22.0955 13.0846C22.0592 13.343 22.0138 13.6007 21.9638 13.8577C21.9388 13.9858 21.9653 14.0905 22.072 14.1688C22.181 14.2494 22.2945 14.2377 22.4117 14.1776C22.5013 14.1314 22.5915 14.0863 22.6816 14.0411L22.6818 14.041C22.8231 13.9702 22.9643 13.8994 23.1033 13.8248C23.188 13.7794 23.2546 13.7735 23.3424 13.8218C23.5265 13.9221 23.7144 14.0161 23.9024 14.1102C23.9546 14.1363 24.0068 14.1624 24.0589 14.1886C24.1663 14.2421 24.2737 14.2435 24.3729 14.171C24.475 14.0964 24.509 13.9968 24.4863 13.8738C24.4379 13.6124 24.3895 13.3503 24.3517 13.0875C24.3441 13.0348 24.3691 12.9601 24.4077 12.922C24.5015 12.828 24.5985 12.7368 24.6955 12.6457C24.7926 12.5545 24.8896 12.4634 24.9834 12.3693C25.0274 12.3251 25.0579 12.2678 25.0806 12.2252C25.0887 12.2099 25.0958 12.1965 25.1022 12.1863C25.0954 12.0047 24.9993 11.8949 24.8495 11.8714ZM23.8485 12.657C23.7494 12.7471 23.7078 12.8503 23.7373 12.9835C23.7582 13.0775 23.7729 13.1725 23.7893 13.2777L23.7893 13.2779C23.7966 13.3251 23.8043 13.3743 23.813 13.4265C23.7705 13.4056 23.7298 13.3861 23.6906 13.3673L23.6903 13.3672C23.5964 13.3221 23.5108 13.2811 23.4286 13.2347C23.2901 13.1563 23.16 13.1512 23.02 13.2332C22.9411 13.2797 22.8579 13.3196 22.7644 13.3644L22.7642 13.3645C22.7224 13.3845 22.6784 13.4056 22.6319 13.4287C22.64 13.3784 22.6472 13.3305 22.6541 13.2842L22.6542 13.284L22.6542 13.284C22.6699 13.1792 22.6843 13.0829 22.7053 12.9879C22.7363 12.8496 22.6924 12.7434 22.5895 12.649C22.5204 12.5851 22.4545 12.5181 22.3827 12.4451C22.35 12.4119 22.3161 12.3774 22.2801 12.3415C22.3168 12.3358 22.3521 12.3292 22.3864 12.3228L22.3864 12.3228C22.4583 12.3093 22.5262 12.2966 22.5948 12.2946C22.8286 12.288 22.986 12.1921 23.0662 11.9732C23.0894 11.9097 23.1227 11.8495 23.161 11.7803C23.1801 11.7458 23.2004 11.7091 23.2213 11.6686C23.2443 11.7132 23.2669 11.7551 23.2885 11.7953L23.2886 11.7953C23.3331 11.8779 23.3738 11.9535 23.4074 12.0318C23.474 12.1863 23.586 12.2668 23.7577 12.2822C23.8469 12.2903 23.9354 12.3037 24.0378 12.3192C24.083 12.3261 24.131 12.3333 24.1829 12.3407L24.1043 12.4161L24.1043 12.4161C24.0115 12.5051 23.9312 12.5822 23.8485 12.657Z" fill="#065A9E"/>
</svg>
