<svg width="66" height="12" viewBox="0 0 66 12" fill="none" xmlns="http://www.w3.org/2000/svg">
<path d="M10.2111 10.9216C10.0887 10.2384 9.96665 9.55375 9.84318 8.86935C9.78861 8.56693 9.71698 8.26648 9.68304 7.96195C9.67207 7.86329 9.72734 7.72548 9.80176 7.65506C10.4991 6.99481 11.2091 6.34711 11.9114 5.69171C12.2157 5.40777 12.2816 5.11095 12.1305 4.79559C11.9959 4.51476 11.7458 4.40617 11.4527 4.36567C10.704 4.26216 9.95473 4.16176 9.20575 4.05977C9.13989 4.05083 9.07364 4.0263 9.00903 4.03054C8.47639 4.06537 8.2082 3.79559 8.00486 3.3353C7.70039 2.64628 7.31387 1.99184 6.97211 1.31804C6.81462 1.00752 6.60731 0.768555 6.22492 0.766132C5.84253 0.763709 5.63078 0.998056 5.47189 1.30903C5.05415 2.12662 4.62373 2.93809 4.20615 3.75584C4.13491 3.89531 4.04585 3.95142 3.88603 3.97186C2.92203 4.09505 1.95974 4.2315 0.996983 4.36385C0.652502 4.41117 0.377696 4.5508 0.268241 4.89925C0.161588 5.23869 0.309344 5.49363 0.555346 5.72003C1.24415 6.35408 1.92696 6.9942 2.6192 7.62462C2.74874 7.74259 2.78852 7.85072 2.75512 8.02509C2.58152 8.93067 2.4287 9.84005 2.25907 10.7463C2.19803 11.0722 2.27269 11.3433 2.5482 11.5411C2.81802 11.7349 3.10528 11.7147 3.39418 11.57C4.25838 11.1374 5.12585 10.7108 5.98631 10.2713C6.1505 10.1874 6.27498 10.1792 6.44438 10.2661C7.30398 10.7072 8.16997 11.1367 9.03744 11.5631C9.56035 11.8202 10.0735 11.6057 10.188 11.0923C10.2003 11.0375 10.2033 10.9808 10.2111 10.9216Z" fill="#FFB80F"/>
<path d="M23.6486 10.9216C23.5262 10.2384 23.4041 9.55375 23.2807 8.86935C23.2261 8.56693 23.1545 8.26648 23.1205 7.96195C23.1096 7.86329 23.1648 7.72548 23.2393 7.65506C23.9366 6.99481 24.6466 6.34711 25.3489 5.69171C25.6532 5.40777 25.7191 5.11095 25.568 4.79559C25.4334 4.51476 25.1833 4.40617 24.8902 4.36567C24.1415 4.26216 23.3922 4.16176 22.6433 4.05977C22.5774 4.05083 22.5111 4.0263 22.4465 4.03054C21.9139 4.06537 21.6457 3.79559 21.4424 3.3353C21.1379 2.64628 20.7514 1.99184 20.4096 1.31804C20.2521 1.00752 20.0448 0.768555 19.6624 0.766132C19.28 0.763709 19.0683 0.998056 18.9094 1.30903C18.4917 2.12662 18.0612 2.93809 17.6436 3.75584C17.5724 3.89531 17.4834 3.95142 17.3235 3.97186C16.3595 4.09505 15.3972 4.2315 14.4345 4.36385C14.09 4.41117 13.8152 4.5508 13.7057 4.89925C13.5991 5.23869 13.7468 5.49363 13.9928 5.72003C14.6817 6.35408 15.3645 6.9942 16.0567 7.62462C16.1862 7.74259 16.226 7.85072 16.1926 8.02509C16.019 8.93067 15.8662 9.84005 15.6966 10.7463C15.6355 11.0722 15.7102 11.3433 15.9857 11.5411C16.2555 11.7349 16.5428 11.7147 16.8317 11.57C17.6959 11.1374 18.5634 10.7108 19.4238 10.2713C19.588 10.1874 19.7125 10.1792 19.8819 10.2661C20.7415 10.7072 21.6075 11.1367 22.4749 11.5631C22.9979 11.8202 23.511 11.6057 23.6255 11.0923C23.6378 11.0375 23.6408 10.9808 23.6486 10.9216Z" fill="#FFB80F"/>
<path d="M37.0861 10.9216C36.9637 10.2384 36.8416 9.55375 36.7182 8.86935C36.6636 8.56693 36.592 8.26648 36.558 7.96195C36.5471 7.86329 36.6023 7.72548 36.6768 7.65506C37.3741 6.99481 38.0841 6.34711 38.7864 5.69171C39.0907 5.40777 39.1566 5.11095 39.0055 4.79559C38.8709 4.51476 38.6208 4.40617 38.3277 4.36567C37.579 4.26216 36.8297 4.16176 36.0808 4.05977C36.0149 4.05083 35.9486 4.0263 35.884 4.03054C35.3514 4.06537 35.0832 3.79559 34.8799 3.3353C34.5754 2.64628 34.1889 1.99184 33.8471 1.31804C33.6896 1.00752 33.4823 0.768555 33.0999 0.766132C32.7175 0.763709 32.5058 0.998056 32.3469 1.30903C31.9292 2.12662 31.4987 2.93809 31.0811 3.75584C31.0099 3.89531 30.9209 3.95142 30.761 3.97186C29.797 4.09505 28.8347 4.2315 27.872 4.36385C27.5275 4.41117 27.2527 4.5508 27.1432 4.89925C27.0366 5.23869 27.1843 5.49363 27.4303 5.72003C28.1192 6.35408 28.802 6.9942 29.4942 7.62462C29.6237 7.74259 29.6635 7.85072 29.6301 8.02509C29.4565 8.93067 29.3037 9.84005 29.1341 10.7463C29.073 11.0722 29.1477 11.3433 29.4232 11.5411C29.693 11.7349 29.9803 11.7147 30.2692 11.57C31.1334 11.1374 32.0009 10.7108 32.8613 10.2713C33.0255 10.1874 33.15 10.1792 33.3194 10.2661C34.179 10.7072 35.045 11.1367 35.9124 11.5631C36.4354 11.8202 36.9485 11.6057 37.063 11.0923C37.0753 11.0375 37.0783 10.9808 37.0861 10.9216Z" fill="#FFB80F"/>
<path d="M50.5236 10.9216C50.4012 10.2384 50.2791 9.55375 50.1557 8.86935C50.1011 8.56693 50.0295 8.26648 49.9955 7.96195C49.9846 7.86329 50.0398 7.72548 50.1143 7.65506C50.8116 6.99481 51.5216 6.34711 52.2239 5.69171C52.5282 5.40777 52.5941 5.11095 52.443 4.79559C52.3084 4.51476 52.0583 4.40617 51.7652 4.36567C51.0165 4.26216 50.2672 4.16176 49.5183 4.05977C49.4524 4.05083 49.3861 4.0263 49.3215 4.03054C48.7889 4.06537 48.5207 3.79559 48.3174 3.3353C48.0129 2.64628 47.6264 1.99184 47.2846 1.31804C47.1271 1.00752 46.9198 0.768555 46.5374 0.766132C46.155 0.763709 45.9433 0.998056 45.7844 1.30903C45.3667 2.12662 44.9362 2.93809 44.5186 3.75584C44.4474 3.89531 44.3584 3.95142 44.1985 3.97186C43.2345 4.09505 42.2722 4.2315 41.3095 4.36385C40.965 4.41117 40.6902 4.5508 40.5807 4.89925C40.4741 5.23869 40.6218 5.49363 40.8678 5.72003C41.5567 6.35408 42.2395 6.9942 42.9317 7.62462C43.0612 7.74259 43.101 7.85072 43.0676 8.02509C42.894 8.93067 42.7412 9.84005 42.5716 10.7463C42.5105 11.0722 42.5852 11.3433 42.8607 11.5411C43.1305 11.7349 43.4178 11.7147 43.7067 11.57C44.5709 11.1374 45.4384 10.7108 46.2988 10.2713C46.463 10.1874 46.5875 10.1792 46.7569 10.2661C47.6165 10.7072 48.4825 11.1367 49.3499 11.5631C49.8729 11.8202 50.386 11.6057 50.5005 11.0923C50.5128 11.0375 50.5158 10.9808 50.5236 10.9216Z" fill="#FFB80F"/>
<path d="M63.9606 10.9216C63.8382 10.2384 63.7162 9.55375 63.5927 8.86935C63.5381 8.56693 63.4665 8.26648 63.4326 7.96195C63.4216 7.86329 63.4769 7.72548 63.5513 7.65506C64.2486 6.99481 64.9586 6.34711 65.6609 5.69171C65.9652 5.40777 66.0311 5.11095 65.88 4.79559C65.7454 4.51476 65.4953 4.40617 65.2022 4.36567C64.4535 4.26216 63.7042 4.16176 62.9553 4.05977C62.8894 4.05083 62.8232 4.0263 62.7585 4.03054C62.2259 4.06537 61.9577 3.79559 61.7544 3.3353C61.4499 2.64628 61.0634 1.99184 60.7216 1.31804C60.5641 1.00752 60.3568 0.768555 59.9744 0.766132C59.592 0.763709 59.3803 0.998056 59.2214 1.30903C58.8037 2.12662 58.3732 2.93809 57.9557 3.75584C57.8844 3.89531 57.7954 3.95142 57.6355 3.97186C56.6715 4.09505 55.7093 4.2315 54.7465 4.36385C54.402 4.41117 54.1272 4.5508 54.0178 4.89925C53.9111 5.23869 54.0589 5.49363 54.3049 5.72003C54.9937 6.35408 55.6765 6.9942 56.3687 7.62462C56.4982 7.74259 56.538 7.85072 56.5046 8.02509C56.331 8.93067 56.1782 9.84005 56.0086 10.7463C55.9475 11.0722 56.0222 11.3433 56.2977 11.5411C56.5675 11.7349 56.8548 11.7147 57.1437 11.57C58.0079 11.1374 58.8754 10.7108 59.7358 10.2713C59.9 10.1874 60.0245 10.1792 60.1939 10.2661C61.0535 10.7072 61.9195 11.1367 62.787 11.5631C63.3099 11.8202 63.823 11.6057 63.9376 11.0923C63.9498 11.0375 63.9528 10.9808 63.9606 10.9216Z" fill="#FFB80F"/>
</svg>
