<svg width="27" height="27" viewBox="0 0 27 27" fill="none" xmlns="http://www.w3.org/2000/svg">
<path d="M22.8845 4.20442C20.4645 1.77152 17.2405 0.420117 13.8055 0.398987C13.7786 0.398987 13.7526 0.398987 13.7256 0.398987C6.73921 0.398987 1.01528 6.11195 0.950758 13.1705C0.91898 16.5764 2.23344 19.7931 4.65051 22.2289C7.06758 24.6647 10.2916 26.0209 13.7294 26.0497C13.7651 26.0497 13.8007 26.0497 13.8363 26.0497C17.1759 26.0497 20.3335 24.753 22.7362 22.3921C25.2043 19.9679 26.5765 16.7253 26.6006 13.2618C26.6237 9.85399 25.3044 6.63733 22.8845 4.20442ZM24.6342 13.1513C24.6506 16.0482 23.5335 18.7836 21.4901 20.8535C19.4466 22.9233 16.7301 24.0701 13.8402 24.0845C13.8219 24.0845 13.8036 24.0845 13.7853 24.0845C10.9099 24.0845 8.19715 22.9675 6.14312 20.9361C4.07561 18.8912 2.92967 16.173 2.91619 13.281C2.90271 10.3784 4.02747 7.64007 6.08438 5.57023C8.12974 3.51288 10.8434 2.3747 13.7246 2.36318C13.7381 2.36318 13.7516 2.36318 13.766 2.36318C19.7297 2.36414 24.6014 7.19537 24.6342 13.1513Z" fill="#065A9E"/>
<path d="M20.1807 14.9051C19.9611 14.7668 19.7184 14.7217 19.4796 14.7764C19.2119 14.8369 18.9702 15.0214 18.7988 15.2951C17.6259 17.1632 15.6672 18.2803 13.5583 18.2822C13.5564 18.2822 13.5544 18.2822 13.5525 18.2822C11.4465 18.2822 9.48778 17.17 8.31295 15.3057C7.97399 14.7678 7.42124 14.6035 6.93782 14.8946C6.71152 15.0319 6.5613 15.2307 6.50448 15.4718C6.44189 15.7379 6.50256 16.0347 6.67589 16.3084C8.19836 18.7106 10.4276 20.0898 12.9526 20.1916H12.9603C12.967 20.1916 12.9738 20.1916 12.9805 20.1916C16.272 20.1916 18.9904 18.7701 20.4397 16.2902C20.7527 15.7571 20.6487 15.2 20.1807 14.9051Z" fill="#065A9E"/>
<path d="M9.7316 11.068C9.73352 11.068 9.73641 11.068 9.73834 11.068C10.1958 11.0661 10.6272 10.8836 10.9527 10.5541C11.2772 10.2257 11.4553 9.79152 11.4534 9.33241C11.4515 8.87426 11.2695 8.443 10.9411 8.1174C10.6146 7.79372 10.1842 7.61603 9.72774 7.61603C9.72486 7.61603 9.72293 7.61603 9.72004 7.61603C8.77343 7.61987 8.0069 8.39786 8.01076 9.35066C8.01461 10.2996 8.78595 11.068 9.7316 11.068Z" fill="#065A9E"/>
<path d="M17.3699 11.069C17.3757 11.069 17.3824 11.069 17.3882 11.069C18.3329 11.0594 19.0984 10.2785 19.0926 9.32955C19.0898 8.86756 18.9078 8.43534 18.5784 8.11166C18.251 7.7899 17.8196 7.61413 17.3603 7.61893C16.9009 7.62277 16.4695 7.80623 16.1459 8.13663C15.8214 8.46608 15.6462 8.90022 15.651 9.35837C15.6558 9.81748 15.8397 10.2487 16.1691 10.5743C16.4936 10.8923 16.9202 11.069 17.3699 11.069Z" fill="#065A9E"/>
</svg>
