<svg width="36" height="24" viewBox="0 0 36 24" fill="none" xmlns="http://www.w3.org/2000/svg">
<path d="M35.6548 21.2807C35.2679 18.0756 32.3699 15.3792 29.1565 15.2236C28.0394 15.1697 27.0017 15.462 26.0195 15.9678C22.1721 9.94159 13.6181 9.90368 9.71419 15.9648C9.60605 15.9139 9.49593 15.862 9.38581 15.8112C8.5068 15.4012 7.58712 15.1797 6.61386 15.2226C2.91727 15.3842 -0.0431761 18.6282 0.000476613 22.4678C0.00940557 23.2858 0.499506 23.8315 1.21482 23.8185C1.91425 23.8065 2.38153 23.2569 2.38153 22.4618C2.38054 20.5226 3.22482 19.0642 4.91438 18.1325C6.12078 17.4671 7.35992 17.3963 8.61494 18.0975C8.56434 18.2502 8.52168 18.3898 8.47307 18.5275C8.01571 19.8163 7.78653 21.1451 7.7905 22.5127C7.79248 23.204 8.27961 23.7227 8.92547 23.7457C9.58224 23.7686 10.0922 23.3028 10.1587 22.6105C10.1795 22.388 10.1785 22.1626 10.1914 21.9391C10.3055 20.0108 10.9295 18.2701 12.1111 16.7409C14.0566 14.2231 17.1381 13.1776 19.9835 14.1343C22.5124 14.9842 24.0888 16.8217 25.0065 19.2777C25.4063 20.349 25.5363 21.4683 25.58 22.6065C25.6067 23.3008 26.1474 23.7666 26.8042 23.7447C27.4511 23.7227 27.9551 23.204 27.9372 22.5147C27.9213 21.8942 27.8965 21.2668 27.7854 20.6593C27.6277 19.7974 27.3856 18.9505 27.1723 18.0626C27.9828 17.6197 28.8698 17.4791 29.8182 17.7334C31.9582 18.307 33.367 20.1864 33.3521 22.4578C33.3472 23.2549 33.8164 23.8035 34.5159 23.8175C35.2312 23.8315 35.7322 23.2848 35.7282 22.4688C35.7252 22.0728 35.7024 21.6738 35.6548 21.2807Z" fill="#065A9E"/>
<path d="M17.8218 9.65829C20.4975 9.66527 22.6703 7.51855 22.6772 4.86207C22.6851 2.17368 20.5362 0.00699966 17.8546 1.68157e-05C15.2037 -0.00696603 13.0528 2.16171 13.0508 4.84412C13.0488 7.48064 15.2007 9.65231 17.8218 9.65829ZM17.8893 1.95621C19.4469 1.96319 20.7267 3.25801 20.7287 4.82816C20.7307 6.41326 19.4449 7.70409 17.8645 7.70309C16.2751 7.7021 14.9973 6.42224 15.0013 4.83514C15.0042 3.22908 16.289 1.94923 17.8893 1.95621Z" fill="#065A9E"/>
<path d="M6.58041 13.3063C9.0954 13.2943 11.1034 11.2903 11.1084 8.78641C11.1143 6.27158 9.1073 4.23159 6.62208 4.2276C4.09617 4.22461 2.08518 6.22969 2.07426 8.76346C2.06335 11.2573 4.10808 13.3183 6.58041 13.3063ZM6.62406 6.61873C7.79673 6.62871 8.73229 7.59034 8.72634 8.77942C8.72038 9.96351 7.7759 10.9112 6.59628 10.9162C5.40873 10.9212 4.44837 9.94955 4.45631 8.75149C4.46524 7.54944 5.42163 6.60875 6.62406 6.61873Z" fill="#065A9E"/>
<path d="M28.887 13.3054C31.4655 13.2266 33.413 11.1716 33.3465 8.59892C33.282 6.11203 31.1768 4.16182 28.63 4.23065C26.2152 4.29649 24.2132 6.44322 24.2975 8.87724C24.3828 11.3821 26.4533 13.3802 28.887 13.3054ZM28.8443 6.61878C30.015 6.62477 30.9674 7.5894 30.9664 8.76751C30.9644 9.95958 29.9842 10.9332 28.8036 10.9162C27.624 10.8983 26.6726 9.93464 26.6785 8.76452C26.6845 7.56845 27.6498 6.6128 28.8443 6.61878Z" fill="#065A9E"/>
</svg>
