<svg width="24" height="24" viewBox="0 0 24 24" fill="none" xmlns="http://www.w3.org/2000/svg">
<path d="M23.9891 20.9743C23.878 17.7382 22.4981 15.0356 19.7956 12.9138C19.1192 12.3818 18.3518 11.9459 17.6266 11.4672C20.6925 8.21894 19.8512 4.07283 17.1302 1.81228C14.2695 -0.565633 9.89432 -0.60374 7.01177 1.69948C4.17801 3.96308 3.27942 8.18693 6.36054 11.4428C5.47037 12.0709 4.5112 12.6348 3.70179 13.3391C1.01107 15.6804 -0.107958 18.5979 0.00815161 21.9483C0.0569514 23.3553 0.72837 23.997 2.29333 23.997C7.06562 23.997 11.8379 23.997 16.6102 23.997C18.4175 23.997 20.2264 24.0062 22.0337 23.9924C23.183 23.9848 23.9638 23.2684 23.9907 22.2303C24.0025 21.8127 24.0042 21.392 23.9891 20.9743ZM2.677 20.4347C3.05562 16.1118 7.08749 12.6897 11.8581 12.6425C11.8934 12.6425 11.9288 12.6425 11.9641 12.6425C16.8407 12.6425 20.8608 15.9685 21.337 20.4164L21.4633 21.5871H2.57603L2.677 20.4347ZM12.0062 2.35341C12.0095 2.35341 12.0129 2.35341 12.0163 2.35341C14.7423 2.35798 16.9636 4.37007 16.9669 6.83944C16.972 9.31034 14.7575 11.33 12.0331 11.3438C12.0247 11.3438 12.0163 11.3438 12.0079 11.3438C9.28853 11.3438 7.06393 9.35149 7.04374 6.89127C7.03365 5.67944 7.54688 4.53926 8.48923 3.67956C9.4282 2.82442 10.6768 2.35341 12.0062 2.35341Z" fill="#065A9E"/>
</svg>
