<svg width="29" height="26" viewBox="0 0 29 26" fill="none" xmlns="http://www.w3.org/2000/svg">
<path d="M26.2581 11.7365C26.3126 11.716 26.3599 11.6921 26.4094 11.6806C27.4959 11.4354 28.1635 10.6932 28.4138 9.45404C28.4238 9.40467 28.4439 9.35859 28.4589 9.31087C28.4589 6.18418 28.4589 5.85506 28.4589 2.72837C28.3729 2.43874 28.3155 2.13101 28.1951 1.86195C27.7626 0.895146 27.0584 0.342216 26.1147 0.333165C23.4047 0.307658 20.694 0.311772 17.984 0.329051C16.7004 0.337279 15.6541 1.55669 15.634 3.03281C15.6319 3.17187 15.6305 3.26731 15.6297 3.32902C15.6297 3.38827 15.6297 3.46561 15.6297 3.56682C15.6297 3.67872 15.6297 3.7898 15.6297 3.94284C15.51 3.94284 15.4067 3.94284 15.3027 3.94284C12.1273 3.94284 8.95195 3.94284 5.77656 3.94284C4.18671 3.94284 3.17629 5.10219 3.17629 6.92554C3.17557 10.0514 3.17342 13.1773 3.17844 16.304C3.17988 17.112 3.20569 17.92 3.22075 18.7535C3.01064 18.7535 2.74387 18.751 2.4771 18.7535C1.58358 18.7617 0.966856 19.4891 0.976178 20.5184C0.999126 22.9918 2.79837 25.0381 4.98486 25.0439C9.01003 25.0546 13.0352 25.0472 17.0604 25.0472C19.4756 25.0472 21.8902 25.048 24.3054 25.0472C26.4388 25.0463 28.038 23.5011 28.4145 21.0812C28.4202 21.0442 28.4432 21.0096 28.4582 20.9742C28.4582 20.6862 28.4582 20.3983 28.4582 20.1103C28.3507 19.8659 28.2696 19.5993 28.1305 19.3821C27.8666 18.9699 27.488 18.7716 27.0441 18.7559C26.7508 18.7461 26.456 18.7543 26.1893 18.7543C26.3291 16.6635 26.2258 14.5917 26.2574 12.5223C26.2617 12.2656 26.2581 12.0097 26.2581 11.7365ZM4.78622 15.0113C4.78622 12.3166 4.78622 9.62272 4.78622 6.92801C4.78622 6.13811 5.08095 5.79417 5.75791 5.79417C8.94263 5.79417 12.1273 5.79417 15.3121 5.79417C15.4081 5.79417 15.5042 5.79417 15.6405 5.79417C15.5602 6.85642 15.7753 7.90468 15.4419 8.92662C15.2662 9.46391 15.1464 10.0242 15.0058 10.5764C14.7979 11.3951 15.0037 12.1611 15.5573 12.6466C16.1066 13.1279 16.8044 13.1493 17.4397 12.7041C17.4548 12.6935 17.4699 12.6828 17.4849 12.6712C17.9252 12.3577 18.3361 11.9208 18.8152 11.7645C19.3042 11.6049 19.8614 11.7192 20.3885 11.7184C21.7037 11.7168 23.0182 11.7176 24.3334 11.7176C24.4295 11.7176 24.5256 11.7176 24.6468 11.7176C24.6468 11.827 24.6468 11.906 24.6468 11.9858C24.6468 13.8989 24.6482 15.8111 24.646 17.7241C24.6453 18.3659 24.319 18.751 23.7697 18.7518C20.0845 18.7535 16.3985 18.7526 12.7132 18.7526C12.6602 18.7526 12.6071 18.7526 12.5153 18.7526C12.5153 17.9471 12.4866 18.8251 12.5225 18.0574C12.5748 16.9368 12.3661 15.9535 11.5472 15.2294C12.0011 14.5004 12.1869 13.7196 12.0334 12.8531C11.9144 12.185 11.6261 11.628 11.1678 11.1943C10.2184 10.2958 8.86661 10.3074 7.93508 11.2157C6.92036 12.2048 6.7841 13.6537 7.55429 15.2121C7.37644 15.4442 7.18354 15.6597 7.02792 15.9058C6.74825 16.3493 6.60913 16.8528 6.61056 17.4066C6.61343 18.3923 6.61128 17.7282 6.61128 18.7378C6.21185 18.7378 5.82747 18.7732 5.45027 18.728C5.05012 18.6794 4.7898 18.2762 4.78765 17.7858C4.78335 16.8618 4.78622 15.937 4.78622 15.0113ZM8.91609 16.4669C9.52923 16.188 10.3001 16.3369 10.6859 16.8347C10.787 16.9655 10.8903 17.1531 10.8932 17.3169C10.9118 18.3322 10.9025 17.6986 10.9025 18.7378C9.99463 18.7378 9.1219 18.7378 8.22192 18.7378C8.22192 17.8944 8.22192 18.714 8.22192 17.8846C8.22192 17.0141 8.3675 16.7171 8.91609 16.4669ZM8.65219 13.4447C8.64502 12.863 9.05808 12.3817 9.56365 12.3808C10.0692 12.3808 10.4823 12.8622 10.4758 13.4439C10.4694 14.0125 10.0592 14.4765 9.56437 14.4774C9.06956 14.4774 8.65865 14.0125 8.65219 13.4447ZM26.8368 20.6171C26.7773 21.449 26.4639 22.1097 25.9053 22.6141C25.437 23.037 24.8956 23.1999 24.3025 23.1991C20.2143 23.1942 16.1267 23.1966 12.0384 23.1966C9.70349 23.1966 7.36927 23.2016 5.03434 23.1942C3.73349 23.1901 2.72451 22.127 2.59901 20.6171C10.6788 20.6171 18.7449 20.6171 26.8368 20.6171ZM25.9067 9.86627C23.5195 9.86709 21.1329 9.85969 18.7456 9.87697C18.5018 9.87861 18.2372 9.98146 18.0206 10.118C17.5308 10.4282 17.0654 10.7886 16.5362 11.168C16.7513 10.3353 16.9557 9.57417 17.1421 8.80731C17.1988 8.57363 17.2354 8.32514 17.2361 8.08323C17.2425 5.54486 17.2397 5.80322 17.2404 3.26485C17.2404 2.52514 17.548 2.1738 18.1941 2.17297C20.76 2.17297 23.3258 2.17297 25.8917 2.17297C26.5392 2.17297 26.8476 2.52349 26.8483 3.26238C26.849 6.03772 26.849 6.01468 26.8483 8.79003C26.8483 9.50834 26.5349 9.86627 25.9067 9.86627Z" fill="#065A9E"/>
<path d="M15.6305 3.6639C15.6286 3.10073 15.6202 4.09725 15.6305 3.6639V3.6639Z" fill="#065A9E"/>
<path d="M24.3141 4.89747C23.6264 4.89473 22.9387 4.89656 22.251 4.89656C21.5547 4.89656 20.8576 4.89381 20.1613 4.89747C19.6629 4.90021 19.3029 5.32899 19.2979 5.9141C19.2929 6.51292 19.6565 6.95176 20.1706 6.95267C21.5547 6.95541 22.9394 6.95541 24.3234 6.95267C24.8405 6.95176 25.2034 6.51841 25.2005 5.91867C25.1983 5.32076 24.8355 4.90021 24.3141 4.89747Z" fill="#065A9E"/>
</svg>
