<svg width="29" height="28" viewBox="0 0 29 28" fill="none" xmlns="http://www.w3.org/2000/svg">
<path d="M15.6341 25.9144C15.584 25.9144 15.5339 25.8986 15.4888 25.8912C15.4888 20.3284 15.4888 14.7856 15.4888 9.23525C18.5534 9.23525 21.5994 9.23525 24.6741 9.23525C24.6741 12.9866 24.6741 16.7148 24.6741 20.462C25.2695 20.462 25.8364 20.462 26.4175 20.462C26.4225 20.3525 26.4297 20.2612 26.4297 20.1699C26.4304 16.2078 26.4311 12.2465 26.4297 8.28433C26.4297 7.57322 26.0754 7.17078 25.4599 7.17161C21.8993 7.1741 18.3394 7.17659 14.7788 7.17908C14.023 7.17991 13.7045 7.54916 13.7045 8.42871C13.7045 14.1226 13.7045 19.8164 13.7045 25.5103C13.7045 25.6406 13.7045 25.77 13.7045 25.8945C10.5998 25.8945 7.53592 25.8945 4.45197 25.8945C4.45197 25.7816 4.45197 25.6895 4.45197 25.5974C4.45197 19.063 4.45268 12.5294 4.44767 5.995C4.44767 5.76848 4.50493 5.67637 4.69531 5.61746C7.33552 4.8018 9.97359 3.97535 12.6124 3.15222C12.9688 3.04103 13.3259 2.93565 13.7189 2.81617C13.7189 3.61357 13.7189 4.36534 13.7189 5.10715C14.3157 5.10715 14.884 5.10715 15.4702 5.10715C15.4702 3.96705 15.4358 2.84687 15.4809 1.73083C15.5174 0.828045 14.9141 0.296164 14.1504 0.541775C10.632 1.67773 7.10077 2.76057 3.5738 3.86084C2.86168 4.08322 2.68991 4.33879 2.68991 5.19843C2.68991 11.961 2.68991 18.7228 2.68991 25.4854C2.68991 25.6173 2.68991 25.7493 2.68991 25.9111C2.04722 25.9111 1.43315 25.9111 0.818359 25.9111C0.818359 26.5956 0.818359 27.2802 0.818359 27.9648C9.97932 27.9648 19.1403 27.9648 28.3012 27.9648C28.3012 27.2802 28.3012 26.5956 28.3012 25.9111C24.0786 25.9127 19.8567 25.9144 15.6341 25.9144Z" fill="#065A9E"/>
<path d="M11.1605 11.8756C9.76559 11.8756 8.38715 11.8756 6.99512 11.8756C6.99512 12.5527 6.99512 13.2099 6.99512 13.8803C8.40505 13.8803 9.78348 13.8803 11.1605 13.8803C11.1605 13.1999 11.1605 12.5419 11.1605 11.8756Z" fill="#065A9E"/>
<path d="M22.1134 11.8814C20.7114 11.8814 19.3336 11.8814 17.9502 11.8814C17.9502 12.5568 17.9502 13.2074 17.9502 13.8845C19.3558 13.8845 20.7343 13.8845 22.1134 13.8845C22.1134 13.2024 22.1134 12.5386 22.1134 11.8814Z" fill="#065A9E"/>
<path d="M11.1569 16.5364C9.75555 16.5364 8.37424 16.5364 7.00439 16.5364C7.00439 17.2202 7.00439 17.8782 7.00439 18.5403C8.40073 18.5403 9.77415 18.5403 11.1569 18.5403C11.1569 17.8574 11.1569 17.1911 11.1569 16.5364Z" fill="#065A9E"/>
<path d="M22.1224 16.5298C20.7268 16.5298 19.3455 16.5298 17.957 16.5298C17.957 17.2069 17.957 17.8649 17.957 18.537C19.3519 18.537 20.7325 18.537 22.1224 18.537C22.1224 17.8582 22.1224 17.1994 22.1224 16.5298Z" fill="#065A9E"/>
<path d="M11.1562 7.24304C9.757 7.24304 8.37856 7.24304 6.99512 7.24304C6.99512 7.91681 6.99512 8.56486 6.99512 9.22867C8.40361 9.22867 9.78205 9.22867 11.1562 9.22867C11.1562 8.54744 11.1562 7.89109 11.1562 7.24304Z" fill="#065A9E"/>
<path d="M6.99512 23.1713C8.4029 23.1713 9.78134 23.1713 11.1569 23.1713C11.1569 22.49 11.1569 21.8337 11.1569 21.1848C9.75843 21.1848 8.38 21.1848 6.99512 21.1848C6.99512 21.8578 6.99512 22.5058 6.99512 23.1713Z" fill="#065A9E"/>
<path d="M22.1187 23.1737C22.1187 22.4958 22.1187 21.8395 22.1187 21.1715C20.7274 21.1715 19.3547 21.1715 17.9619 21.1715C17.9619 21.8428 17.9619 22.5074 17.9619 23.1737C19.3568 23.1737 20.7353 23.1737 22.1187 23.1737Z" fill="#065A9E"/>
<path d="M26.4121 24.2018C26.4121 23.5662 26.4121 22.9514 26.4121 22.3224C25.8345 22.3224 25.2741 22.3224 24.688 22.3224C24.688 22.9655 24.688 23.5803 24.688 24.2018C25.2741 24.2018 25.841 24.2018 26.4121 24.2018Z" fill="#065A9E"/>
</svg>
