<svg width="37" height="29" viewBox="0 0 37 29" fill="none" xmlns="http://www.w3.org/2000/svg">
<path d="M36.0099 8.53122C30.2583 5.68586 25.0347 3.13135 20.037 0.723395C19.62 0.522732 19.0078 0.513713 18.5806 0.703103C13.0426 3.1539 7.33215 5.71742 1.1184 8.54024C0.763033 8.70257 0.243338 9.17605 0.233067 9.60894C0.222797 10.0373 0.717842 10.5221 1.07937 10.7092C2.84181 11.6178 4.70286 12.5332 6.6132 13.426C7.13495 13.6695 7.29723 13.9356 7.27874 14.5173C7.24998 15.4304 7.25614 16.3548 7.26025 17.2522C7.26436 18.012 7.26847 18.7989 7.25204 19.5699C7.22944 20.6296 7.62178 21.4278 8.38797 21.8809C9.21373 22.368 10.1052 22.8527 11.0275 23.1075C15.1194 24.2393 19.5522 24.3813 24.2007 23.5313C25.579 23.2788 26.9306 22.7129 28.3069 22.1064C29.3031 21.6668 29.8249 20.6995 29.7776 19.3828C29.7263 17.9759 29.7468 16.5374 29.7674 15.1486L29.7735 14.6841C29.7776 14.3685 29.8557 14.1069 29.905 14.0664C30.55 13.6695 31.2237 13.3156 31.9365 12.939C32.0988 12.8534 32.2611 12.7677 32.4275 12.6798V14.01C32.4295 16.1474 32.4316 18.1653 32.4069 20.2012C32.4008 20.2441 32.3042 20.3523 32.2488 20.4177C32.1707 20.5056 32.0803 20.6071 32.0208 20.7243C31.9386 20.8844 31.842 21.0422 31.7414 21.2091C31.4785 21.6487 31.2053 22.1019 31.158 22.6024C31.0676 23.5764 31.082 24.573 31.0984 25.5357C31.1046 25.9664 31.1108 26.397 31.1087 26.8276C31.1067 27.2402 31.1991 27.5401 31.3922 27.7498C31.5791 27.9527 31.8482 28.0496 32.2097 28.0496C32.2282 28.0496 32.2467 28.0496 32.2672 28.0496C33.0211 28.0294 33.8222 28.0294 34.7137 28.0474C35.1061 28.0542 35.3895 27.955 35.5847 27.7408C35.786 27.5198 35.8825 27.1906 35.8764 26.7352C35.862 25.6575 35.8661 24.5595 35.8681 23.4975L35.8702 22.7851C35.8722 21.8088 35.5025 21.0558 34.802 20.6093C34.422 20.3681 34.3542 20.0953 34.3604 19.6466C34.3666 19.1596 34.3768 18.6726 34.3871 18.1833C34.42 16.7223 34.4528 15.2117 34.3316 13.7349C34.1879 12.0034 34.6583 11.1624 36.0058 10.734C36.3899 10.6123 36.8808 10.0486 36.8767 9.6157C36.8767 9.18732 36.3735 8.71159 36.0099 8.53122ZM33.9804 22.7467C34.0708 23.7636 34.0359 24.803 34.003 25.7905C33.9845 25.8491 33.8407 25.9889 33.7462 26.0115C33.5737 26.052 33.3826 26.0453 33.1423 26.0363C33.0848 26.034 33.0232 26.0317 32.9615 26.0295C32.9615 25.7634 32.9574 25.5019 32.9554 25.2449C32.9472 24.3768 32.9389 23.5561 32.9924 22.7422C33.0026 22.5957 33.3128 22.262 33.4155 22.2462C33.6291 22.2733 33.9681 22.5979 33.9804 22.7467ZM28.1405 9.37896C24.3095 7.61809 20.0411 7.0409 15.0885 7.61358C15.0064 7.6226 14.9489 7.66769 14.8934 7.71053C14.8688 7.72857 14.8379 7.75337 14.7969 7.78042L14.6798 7.85933L14.953 9.61119L15.4336 9.58188C15.6082 9.57061 15.7705 9.55933 15.9307 9.54806C20.3553 9.2031 23.946 9.6901 27.2346 11.0902C27.7173 11.2954 27.8611 11.5367 27.8468 12.1184C27.8159 13.4418 27.8201 14.7856 27.8262 16.0865C27.8283 16.5059 27.8303 16.923 27.8303 17.3401C21.5734 15.2929 15.4788 15.2951 9.21373 17.3469C9.20141 17.2905 9.19319 17.2341 9.19114 17.18C9.18908 16.5284 9.18908 15.8791 9.18908 15.2275C9.19114 14.1295 9.19114 12.9932 9.1747 11.8771C9.16854 11.4825 9.28563 11.3022 9.63483 11.1691C10.2244 10.9437 10.8118 10.7137 11.4322 10.4702L12.412 10.0847L12.0895 8.17498L11.8759 8.23586C10.4811 8.63268 9.01859 9.10164 7.79638 10.0779C7.51702 10.3011 7.38761 10.6934 7.25204 11.1083C7.21301 11.2255 7.17398 11.3473 7.13084 11.4645L3.47243 9.68559C3.63266 9.59992 3.76617 9.53002 3.89558 9.4714L5.95177 8.547C10.1381 6.66437 14.4661 4.71862 18.7305 2.83148C19.0428 2.69395 19.4638 2.68042 19.7145 2.79992C23.757 4.74342 27.855 6.75005 31.8174 8.6913L33.5203 9.52551C33.6065 9.56835 33.6908 9.62246 33.7914 9.68785L29.8208 11.7982C29.9379 10.4071 29.0854 9.81185 28.1405 9.37896ZM9.65537 19.7706C9.9676 19.4888 10.2613 19.225 10.5921 19.0897C13.2193 18.0323 15.9821 17.8857 18.5785 17.8857C18.5867 17.8857 18.597 17.8857 18.6052 17.8857C18.634 17.8857 18.6627 17.8857 18.6935 17.8857C20.7559 17.8857 23.4365 18.0097 26.0473 18.9138C26.5691 19.0942 27.0477 19.3242 27.475 19.5993C27.7215 19.7571 27.8077 19.8878 27.8077 19.9555C27.8077 20.0254 27.7153 20.1539 27.4606 20.3095C26.9183 20.6386 26.3637 20.8912 25.8111 21.0648C22.8285 21.9937 19.6179 22.2687 15.9985 21.9012C14.2217 21.7209 12.4346 21.2654 10.705 20.8235L10.5448 20.7829C10.2367 20.704 9.95116 20.447 9.64715 20.1742C9.57526 20.1088 9.49926 20.0412 9.42531 19.9758C9.50336 19.9059 9.57937 19.8382 9.65537 19.7706Z" fill="#065A9E"/>
</svg>
